PathFileType	4	(X/Y/Z)	outputs\dynamic_markers.trc
DataRate	CameraRate	NumFrames	NumMarkers	Units	OrigDataRate	OrigDataStartFrame	OrigNumFrames
360.000000	360.000000	4	45	m	360.000000	229	612
Frame#	Time	C7			CLAV			LANK			LASI			LBHD			LELB			LFHD			LFIN			LFRM			LHEE			LKNE			LMANK			LMELB			LMKNE			LPSI			LSHO			LTHI			LTIB			LTOE			LUPA			LWRA			LWRB			RANK			RASI			RBAK			RBHD			RELB			RFHD			RFIN			RFRM			RHEE			RKNE			RMANK			RMELB			RMKNE			RPSI			RSHO			RTHI			RTIB			RTOE			RUPA			RWRA			RWRB			STRN			T10			
		X1	Y1	Z1	X2	Y2	Z2	X3	Y3	Z3	X4	Y4	Z4	X5	Y5	Z5	X6	Y6	Z6	X7	Y7	Z7	X8	Y8	Z8	X9	Y9	Z9	X10	Y10	Z10	X11	Y11	Z11	X12	Y12	Z12	X13	Y13	Z13	X14	Y14	Z14	X15	Y15	Z15	X16	Y16	Z16	X17	Y17	Z17	X18	Y18	Z18	X19	Y19	Z19	X20	Y20	Z20	X21	Y21	Z21	X22	Y22	Z22	X23	Y23	Z23	X24	Y24	Z24	X25	Y25	Z25	X26	Y26	Z26	X27	Y27	Z27	X28	Y28	Z28	X29	Y29	Z29	X30	Y30	Z30	X31	Y31	Z31	X32	Y32	Z32	X33	Y33	Z33	X34	Y34	Z34	X35	Y35	Z35	X36	Y36	Z36	X37	Y37	Z37	X38	Y38	Z38	X39	Y39	Z39	X40	Y40	Z40	X41	Y41	Z41	X42	Y42	Z42	X43	Y43	Z43	X44	Y44	Z44	X45	Y45	Z45	

230	0.6361111111111112	0.1627947390079498	1.597026944160461	0.0616520419716835	0.1219588294625282	1.488927364349365	0.2023738026618958	0.04593798890709877	0.8309115171432495	0.5009921789169312	0.2793931365013123	1.141680359840393	0.203877255320549	0.1158850863575935	1.717354893684387	0.1055794358253479	0.3111363351345062	1.281087279319763	0.4964070618152618	0.2461243569850922	1.738681674003601	0.1899398267269135	0.07855386286973953	1.559185743331909	0.514554500579834	0.2244145125150681	1.405842423439026	0.5074248313903809	0.05821165814995766	0.8303341865539551	0.4167288839817047	0.05399830639362335	1.307808876037598	0.4602338373661041	-0.02495391480624676	0.8278124928474426	0.4194115996360779	0.253866970539093	1.220434904098511	0.4562078416347504	-0.02264143340289593	1.288841009140015	0.3677172064781189	0.3956360220909119	1.035724282264709	0.0326593779027462	0.2871530652046204	1.551643848419189	0.2204955518245697	0.1834111660718918	1.253411650657654	0.4052665233612061	0.06737399846315384	1.202988147735596	0.4890019595623016	-0.1093970388174057	0.8081137537956238	0.5658653378486633	0.3383039534091949	1.38668966293335	0.390050083398819	0.1371616125106812	1.476922988891602	0.4817058145999908	0.098089300096035	1.441661715507507	0.5472361445426941	0.0004525601398199797	0.09872966259717941	0.1007737964391708	0.1149032786488533	1.061036825180054	0.05473274737596512	0.1482293605804443	1.371731638908386	-0.1042873486876488	0.04759124666452408	1.705183506011963	0.2142311334609985	-0.2703612148761749	1.371267676353455	0.1039410382509232	0.1706534028053284	1.729962944984436	0.3063835203647614	-0.07429783791303635	1.550996780395508	0.3202057182788849	-0.1715929806232452	1.461009383201599	0.208411306142807	0.0608246736228466	0.06626830995082855	0.03384032472968102	0.01264646556228399	0.5754479169845581	0.2006759494543076	0.09985830634832382	0.06049127504229546	0.1337269991636276	-0.2289851903915405	1.280105590820312	0.1138248592615128	0.1158841177821159	0.5360648036003113	0.2511667907238007	0.3407159447669983	1.019995093345642	-0.01806455850601196	0.01159299910068512	1.570528984069824	0.03973338007926941	0.05276236310601234	0.8264204859733582	0.07537461817264557	-0.008195556700229645	0.41158726811409	0.1588082611560822	0.03646210208535194	0.08420751988887787	0.2625975012779236	-0.1559796929359436	1.468621730804443	0.07548288255929947	-0.07524330914020538	1.475873827934265	0.2814828157424927	-0.1543890386819839	1.495998978614807	0.3063327968120575	0.1294539123773575	1.263251185417175	0.1789702773094177	0.3193469345569611	1.263350486755371	-0.06211133673787117	
231	0.638888888888889	0.1641441136598587	1.596148610115051	0.06226369738578796	0.1231718361377716	1.488033175468445	0.2029754519462585	0.04942286014556885	0.8285282850265503	0.4965877532958984	0.281075656414032	1.141022920608521	0.20401331782341	0.1172454357147217	1.716386914253235	0.1060514897108078	0.3123452663421631	1.280493021011353	0.497311145067215	0.2473869919776917	1.737736463546753	0.1905291378498077	0.07949581742286682	1.558295845985413	0.5149514675140381	0.2255617380142212	1.40511167049408	0.508062481880188	0.06230470910668373	0.8288231492042542	0.4125316441059113	0.0535191148519516	1.305824041366577	0.4596682190895081	-0.02084081992506981	0.8255560398101807	0.4146742522716522	0.2550381720066071	1.219624280929565	0.4571374654769897	-0.0222956370562315	1.286826729774475	0.3664363622665405	0.3977731466293335	1.034987688064575	0.03327015787363052	0.2882156074047089	1.551043629646301	0.2213378250598907	0.1827476620674133	1.251974940299988	0.4061029851436615	0.06762534379959106	1.200851798057556	0.4884982407093048	-0.1061707437038422	0.8038936853408813	0.5604038238525391	0.3396099507808685	1.386141180992126	0.3909765481948853	0.1384003758430481	1.476198673248291	0.4820663332939148	0.09938772767782211	1.440965175628662	0.5477944612503052	0.0006147522944957018	0.09883791953325272	0.1007578074932098	0.1172647848725319	1.060148477554321	0.0545952171087265	0.1500782072544098	1.370984315872192	-0.1037648022174835	0.04867753386497498	1.704070925712585	0.2146137058734894	-0.2691451609134674	1.370003342628479	0.1037050560116768	0.1717064380645752	1.728993654251099	0.3070169687271118	-0.07346438616514206	1.549680233001709	0.3201276361942291	-0.1705303490161896	1.459875464439392	0.2081343531608582	0.06101137027144432	0.06632205843925476	0.03383051604032516	0.01348546147346497	0.5752060413360596	0.201485887169838	0.09998016804456711	0.06043240427970886	0.13390152156353	-0.2275635451078415	1.278869271278381	0.113473542034626	0.116698145866394	0.5358073115348816	0.2516701221466064	0.3428950905799866	1.019133329391479	-0.01772491261363029	0.0131216449663043	1.569330811500549	0.04017969965934753	0.05412939935922623	0.8259314894676208	0.0757874920964241	-0.007930868305265903	0.4114539623260498	0.1597202569246292	0.03646960854530334	0.08419410884380341	0.2626149356365204	-0.1548595428466797	1.467584490776062	0.07553762942552567	-0.07450252771377563	1.47468626499176	0.2814012169837952	-0.1536750048398972	1.495038986206055	0.3061911463737488	0.1306909769773483	1.262518048286438	0.1794504523277283	0.3213453888893127	1.262654304504395	-0.06109326705336571	
232	0.6416666666666667	0.1655086427927017	1.59519624710083	0.06277278065681458	0.1243785917758942	1.487167716026306	0.2036585807800293	0.05302146077156067	0.8261632323265076	0.4923425614833832	0.2826001346111298	1.139548540115356	0.2046844065189362	0.1187157705426216	1.715339303016663	0.1065716147422791	0.3135979175567627	1.279744744300842	0.498011976480484	0.2485860884189606	1.736730933189392	0.1913459748029709	0.08034588396549225	1.557418465614319	0.5153396725654602	0.2267700433731079	1.40440571308136	0.5086871981620789	0.06657323241233826	0.8272541761398315	0.4083630442619324	0.05312729254364967	1.303572654724121	0.45890212059021	-0.01656971126794815	0.8231687545776367	0.4098794758319855	0.2562144696712494	1.218955755233765	0.457954615354538	-0.02214816585183144	1.284594178199768	0.3653892278671265	0.3997719585895538	1.03401255607605	0.03405522927641869	0.2893921136856079	1.550366759300232	0.2222741693258286	0.1828079074621201	1.250242233276367	0.4063445031642914	0.0679822564125061	1.198739290237427	0.4868011176586151	-0.1026652008295059	0.799399197101593	0.5547711253166199	0.3407766222953796	1.385435461997986	0.3918934166431427	0.1394679993391037	1.475402474403381	0.4826706051826477	0.1004380211234093	1.44012725353241	0.5484114289283752	0.0007874800357967615	0.09894523024559021	0.1007694900035858	0.1194387972354889	1.059194922447205	0.0545060969889164	0.1520800441503525	1.370144367218018	-0.1032794266939163	0.04986068978905678	1.703112602233887	0.2149339616298676	-0.2678475379943848	1.368679404258728	0.1033308282494545	0.1727313250303268	1.727999448776245	0.3075217604637146	-0.07255788892507553	1.548458576202393	0.3201161026954651	-0.1695696115493774	1.458619832992554	0.2079119682312012	0.06120242178440094	0.06637135893106461	0.03384903445839882	0.0140041084960103	0.5749935507774353	0.2025730311870575	0.1001055985689163	0.06035548448562622	0.1340132057666779	-0.2263202667236328	1.277664661407471	0.1132175400853157	0.1174565032124519	0.5355385541915894	0.2521727681159973	0.3451064825057983	1.018316745758057	-0.01721405610442162	0.01417197659611702	1.568224906921387	0.04069286584854126	0.05561396107077599	0.8253923654556274	0.07626949995756149	-0.00769300339743495	0.4113970696926117	0.1606637239456177	0.036498062312603	0.08418107777833939	0.2626621425151825	-0.1534899324178696	1.466334104537964	0.07549224048852921	-0.07346117496490479	1.473296284675598	0.2816447019577026	-0.1528582125902176	1.493869781494141	0.3059146106243134	0.1322971880435944	1.261626958847046	0.1799849420785904	0.3233171701431274	1.262044906616211	-0.06052853167057037	
233	0.6444444444444445	0.1664882004261017	1.594562888145447	0.06317774206399918	0.1252190321683884	1.486493825912476	0.2039620727300644	0.05551428720355034	0.8244520425796509	0.4894348084926605	0.2834674417972565	1.139199018478394	0.2046812474727631	0.119688093662262	1.714711666107178	0.1068620085716248	0.3143393993377686	1.279194831848145	0.4985917806625366	0.2493390291929245	1.736051440238953	0.1918820589780807	0.08088463544845581	1.556877970695496	0.5156343579292297	0.2274276912212372	1.403880000114441	0.5089440941810608	0.06944037973880768	0.8261123299598694	0.4055027067661285	0.05280572921037674	1.302093744277954	0.4586962163448334	-0.01368944067507982	0.8214685916900635	0.4066524803638458	0.2570239305496216	1.218498706817627	0.4584735035896301	-0.02211015298962593	1.28296422958374	0.3645770251750946	0.4011159241199493	1.033568024635315	0.03444196283817291	0.2900559902191162	1.549969077110291	0.2228437066078186	0.1828378587961197	1.249191522598267	0.4062736034393311	0.06828814744949341	1.197199821472168	0.4857587516307831	-0.1002284288406372	0.7963540554046631	0.5510764122009277	0.3414039611816406	1.384950399398804	0.3923866152763367	0.1400731354951859	1.474796652793884	0.4830775558948517	0.1012115627527237	1.439459800720215	0.5487676858901978	0.0009366323938593268	0.09898103773593903	0.100793831050396	0.1207583248615265	1.058525562286377	0.05432941764593124	0.1532578766345978	1.369572639465332	-0.1028759777545929	0.05073628574609756	1.702508449554443	0.2151660323143005	-0.2670107483863831	1.367857933044434	0.1030171737074852	0.173406109213829	1.727261662483215	0.307907372713089	-0.07203817367553711	1.547624468803406	0.3200629651546478	-0.168774425983429	1.457763314247131	0.2078537195920944	0.06136311218142509	0.06641023606061935	0.03387536481022835	0.01430786959826946	0.5748845338821411	0.2033267021179199	0.1002186089754105	0.06033707410097122	0.1340962648391724	-0.22549107670784	1.276742458343506	0.113015741109848	0.117926612496376	0.5352954268455505	0.2526039481163025	0.3464193642139435	1.017744898796082	-0.01699015684425831	0.01501121930778027	1.567513704299927	0.04107274860143661	0.05640526115894318	0.8250281810760498	0.07655137032270432	-0.00748100271448493	0.4112772643566132	0.1613480448722839	0.03653409332036972	0.08416897803544998	0.2626746892929077	-0.1525827497243881	1.465473413467407	0.0755973681807518	-0.07296901196241379	1.472476720809937	0.2817394137382507	-0.1522495150566101	1.492997646331787	0.3056268990039825	0.1333082318305969	1.261056542396545	0.1803519427776337	0.3247679173946381	1.261581420898438	-0.06003651022911072	
